{
  "accessors": [
    {
      "name": "Eyelashes_1_0_positions",
      "componentType": 5126,
      "count": 98,
      "min": [
        -6.062807083129883,
        166.25392150878906,
        9.151641845703125
      ],
      "max": [
        6.125970840454102,
        168.49337768554688,
        11.703542709350586
      ],
      "type": "VEC3",
      "bufferView": 0,
      "byteOffset": 0
    },
    {
      "name": "Eyelashes_1_0_normals",
      "componentType": 5126,
      "count": 98,
      "min": [
        -0.5755810141563416,
        -0.9922198057174683,
        0.038912996649742126
      ],
      "max": [
        0.5766607522964478,
        0.9119855761528015,
        0.775873064994812
      ],
      "type": "VEC3",
      "bufferView": 1,
      "byteOffset": 0
    },
    {
      "name": "Eyelashes_1_0_texcoords",
      "componentType": 5126,
      "count": 98,
      "min": [
        0.5035780072212219,
        0.3038409948348999
      ],
      "max": [
        0.596340000629425,
        0.397350013256073
      ],
      "type": "VEC2",
      "bufferView": 2,
      "byteOffset": 0
    },
    {
      "name": "Eyelashes_1_0_indices",
      "componentType": 5123,
      "count": 318,
      "min": [
        0
      ],
      "max": [
        97
      ],
      "type": "SCALAR",
      "bufferView": 3,
      "byteOffset": 0
    },
    {
      "name": "MaleFitA_Body_1_0_positions",
      "componentType": 5126,
      "count": 10402,
      "min": [
        -97.3788070678711,
        -0.3510169982910156,
        -15.710553169250488
      ],
      "max": [
        97.36723327636719,
        178.86158752441406,
        18.02804946899414
      ],
      "type": "VEC3",
      "bufferView": 0,
      "byteOffset": 1176
    },
    {
      "name": "MaleFitA_Body_1_0_normals",
      "componentType": 5126,
      "count": 10402,
      "min": [
        -0.9998293519020081,
        -0.9999901652336121,
        -0.9998473525047302
      ],
      "max": [
        0.9998294115066528,
        0.99952232837677,
        0.9999687075614929
      ],
      "type": "VEC3",
      "bufferView": 1,
      "byteOffset": 1176
    },
    {
      "name": "MaleFitA_Body_1_0_texcoords",
      "componentType": 5126,
      "count": 10402,
      "min": [
        0.004989999812096357,
        0.0021440000273287296
      ],
      "max": [
        0.9924700260162354,
        0.9919099807739258
      ],
      "type": "VEC2",
      "bufferView": 2,
      "byteOffset": 784
    },
    {
      "name": "MaleFitA_Body_1_0_indices",
      "componentType": 5123,
      "count": 54888,
      "min": [
        0
      ],
      "max": [
        10401
      ],
      "type": "SCALAR",
      "bufferView": 3,
      "byteOffset": 636
    },
    {
      "name": "Eyes_1_0_positions",
      "componentType": 5126,
      "count": 3120,
      "min": [
        -5.405393123626709,
        165.2763214111328,
        6.8924431800842285
      ],
      "max": [
        5.448458194732666,
        169.3543701171875,
        10.218253135681152
      ],
      "type": "VEC3",
      "bufferView": 0,
      "byteOffset": 126000
    },
    {
      "name": "Eyes_1_0_normals",
      "componentType": 5126,
      "count": 3120,
      "min": [
        -0.9997695088386536,
        -0.9991771578788757,
        -0.9995743036270142
      ],
      "max": [
        0.9997702240943909,
        0.9991739988327026,
        0.9987270832061768
      ],
      "type": "VEC3",
      "bufferView": 1,
      "byteOffset": 126000
    },
    {
      "name": "Eyes_1_0_texcoords",
      "componentType": 5126,
      "count": 3120,
      "min": [
        0.501675009727478,
        0.001702000037766993
      ],
      "max": [
        0.5983250141143799,
        0.296081006526947
      ],
      "type": "VEC2",
      "bufferView": 2,
      "byteOffset": 84000
    },
    {
      "name": "Eyes_1_0_indices",
      "componentType": 5123,
      "count": 4560,
      "min": [
        0
      ],
      "max": [
        3119
      ],
      "type": "SCALAR",
      "bufferView": 3,
      "byteOffset": 110412
    }
  ],
  "asset": {
    "generator": "obj2gltf",
    "version": "2.0"
  },
  "buffers": [
    {
      "name": "geometry",
      "byteLength": 555372,
      "uri": "data:application/octet-stream;base64,"
    }
  ],
  "bufferViews": [
    {
      "name": "bufferView_0",
      "buffer": 0,
      "byteLength": 163440,
      "byteOffset": 0,
      "byteStride": 12,
      "target": 34962
    },
    {
      "name": "bufferView_1",
      "buffer": 0,
      "byteLength": 163440,
      "byteOffset": 163440,
      "byteStride": 12,
      "target": 34962
    },
    {
      "name": "bufferView_2",
      "buffer": 0,
      "byteLength": 108960,
      "byteOffset": 326880,
      "byteStride": 8,
      "target": 34962
    },
    {
      "name": "bufferView_3",
      "buffer": 0,
      "byteLength": 119532,
      "byteOffset": 435840,
      "target": 34963
    }
  ],
  "materials": [
    {
      "name": "default",
      "pbrMetallicRoughness": {
        "baseColorFactor": [
          0.5,
          0.5,
          0.5,
          1
        ],
        "metallicFactor": 0,
        "roughnessFactor": 1
      },
      "emissiveFactor": [
        0,
        0,
        0
      ],
      "alphaMode": "OPAQUE",
      "doubleSided": false
    }
  ],
  "meshes": [
    {
      "name": "Eyelashes_1",
      "primitives": [
        {
          "attributes": {
            "POSITION": 0,
            "NORMAL": 1,
            "TEXCOORD_0": 2
          },
          "indices": 3,
          "material": 0,
          "mode": 4
        }
      ]
    },
    {
      "name": "MaleFitA_Body_1",
      "primitives": [
        {
          "attributes": {
            "POSITION": 4,
            "NORMAL": 5,
            "TEXCOORD_0": 6
          },
          "indices": 7,
          "material": 0,
          "mode": 4
        }
      ]
    },
    {
      "name": "Eyes_1",
      "primitives": [
        {
          "attributes": {
            "POSITION": 8,
            "NORMAL": 9,
            "TEXCOORD_0": 10
          },
          "indices": 11,
          "material": 0,
          "mode": 4
        }
      ]
    }
  ],
  "nodes": [
    {
      "name": "Eyelashes",
      "mesh": 0
    },
    {
      "name": "MaleFitA_Body",
      "mesh": 1
    },
    {
      "name": "Eyes",
      "mesh": 2
    }
  ],
  "scene": 0,
  "scenes": [
    {
      "nodes": [
        0,
        1,
        2
      ]
    }
  ]
}
